<?xml version="1.0" encoding="UTF-8"?>
<svg width="30px" height="30px" viewBox="0 0 30 30" version="1.1" xmlns="http://www.w3.org/2000/svg" xmlns:xlink="http://www.w3.org/1999/xlink">
    <title>shezhi_icon</title>
    <g id="我的" stroke="none" stroke-width="1" fill="none" fill-rule="evenodd">
        <g id="我的-已实名" transform="translate(-335.000000, -56.000000)" stroke="#FFFFFF">
            <g id="shezhi_icon" transform="translate(334.000000, 55.000000)">
                <g id="Group-4">
                    <path d="M17.25,6.29903811 C16.8632487,6.07574711 16.4316243,5.96410162 16,5.96410162 C15.5683757,5.96410162 15.1367513,6.07574711 14.75,6.29903811 L8.22372056,10.0669873 C7.83696921,10.2902783 7.52446921,10.6082532 7.30865705,10.9820508 C7.09284489,11.3558484 6.97372056,11.7854688 6.97372056,12.2320508 L6.97372056,19.7679492 C6.97372056,20.2145312 7.09284489,20.6441516 7.30865705,21.0179492 C7.52446921,21.3917468 7.83696921,21.7097217 8.22372056,21.9330127 L14.75,25.7009619 C15.1367513,25.9242529 15.5683757,26.0358984 16,26.0358984 C16.4316243,26.0358984 16.8632487,25.9242529 17.25,25.7009619 L23.7762794,21.9330127 C24.1630308,21.7097217 24.4755308,21.3917468 24.691343,21.0179492 C24.9071551,20.6441516 25.0262794,20.2145312 25.0262794,19.7679492 L25.0262794,12.2320508 C25.0262794,11.3388868 24.5497821,10.5135693 23.7762794,10.0669873 L17.25,6.29903811 Z" id="Polygon" transform="translate(16.000000, 16.000000) rotate(-330.000000) translate(-16.000000, -16.000000) "></path>
                    <circle id="Oval" cx="16" cy="16" r="3.5"></circle>
                </g>
            </g>
        </g>
    </g>
</svg>